# xmcd
#
# Track frame offsets:
#	150
#	16090
#	30540
#	44937
#	56200
#	69472
#	81507
#	96577
#
# Disc length: 2033 seconds
#
# Revision: 0
# Processed by: cddbd v1.5.2PL0 Copyright (c) Steve Scherf et al.
# Submitted via: EasyCDDAExtractor 10.0.6.1
#
DISCID=7107ef08
DTITLE=Various Artist - CDX 10B July 1991
DYEAR=1991
DGENRE=Country
TTITLE0=Davis Daniel - Picture Me
TTITLE1=Marty Stuart - Tempted
TTITLE2=Jeff Chance - Thirty Days In Twenty Years
TTITLE3=Neal McCoy - This Time I Hurt Her More
TTITLE4=Johnny Cash - Wanted Man
TTITLE5=Cee Cee Chapman - What Would Elvis Do
TTITLE6=T. Graham Brown - You Can't Take It With You
TTITLE7=Interview - B.B. Watson
EXTD=
EXTT0=
EXTT1=
EXTT2=
EXTT3=
EXTT4=
EXTT5=
EXTT6=
EXTT7=
PLAYORDER=
